<svg width="70" height="70" viewBox="0 0 70 70" fill="none" xmlns="http://www.w3.org/2000/svg">
<path d="M67.2 0H2.8C1.25125 0 0 1.25125 0 2.8V67.2C0 68.7487 1.25125 70 2.8 70H67.2C68.7487 70 70 68.7487 70 67.2V2.8C70 1.25125 68.7487 0 67.2 0ZM20.7637 59.6488H10.3775V26.2412H20.7637V59.6488ZM15.575 21.6737C14.3844 21.6737 13.2205 21.3207 12.2305 20.6592C11.2405 19.9977 10.4689 19.0575 10.0132 17.9575C9.55761 16.8575 9.43839 15.6471 9.67067 14.4793C9.90296 13.3115 10.4763 12.2389 11.3182 11.397C12.1601 10.5551 13.2328 9.9817 14.4006 9.74942C15.5683 9.51714 16.7787 9.63636 17.8788 10.092C18.9788 10.5476 19.919 11.3192 20.5804 12.3092C21.2419 13.2992 21.595 14.4631 21.595 15.6537C21.5862 18.9787 18.8913 21.6737 15.575 21.6737ZM59.6488 59.6488H49.2712V43.4C49.2712 39.5238 49.2013 34.545 43.8725 34.545C38.4738 34.545 37.6425 38.7625 37.6425 43.12V59.6488H27.2738V26.2412H37.2313V30.8088H37.3712C38.7537 28.1838 42.14 25.41 47.1975 25.41C57.715 25.41 59.6488 32.3312 59.6488 41.3262V59.6488Z" fill="white"/>
</svg>
