<svg width="70" height="53" viewBox="0 0 70 53" fill="none" xmlns="http://www.w3.org/2000/svg">
<path d="M70 4.37546V48.1255C70 50.6046 68.1042 52.5005 65.625 52.5005H61.25V12.7959L35 31.6463L8.75 12.7959V52.5005H4.375C1.89292 52.5005 0 50.6046 0 48.1255V4.37546C0 3.13588 0.4725 2.04213 1.25708 1.26046C1.66654 0.85318 2.15331 0.531896 2.68876 0.31551C3.22422 0.0991249 3.79754 -0.00799097 4.375 0.000464249H5.83333L35 21.1463L64.1667 0.000464249H65.625C66.8646 0.000464249 67.9583 0.472964 68.7429 1.26046C69.5304 2.04213 70 3.13588 70 4.37546Z" fill="white"/>
</svg>
