<svg width="59" height="59" viewBox="0 0 59 59" fill="none" xmlns="http://www.w3.org/2000/svg">
<path d="M29.1404 0C13.1133 0 0 13.1133 0 29.1404C0 45.1646 13.1133 58.2779 29.1404 58.2779C45.1646 58.2779 58.2779 45.1646 58.2779 29.1404C58.2779 13.1133 45.3104 0 29.1404 0ZM42.5425 42.105C41.9621 42.9771 40.9412 43.2717 40.0633 42.6912C33.2121 38.4621 24.6167 37.5871 14.4171 39.9175C13.4021 40.215 12.5271 39.4858 12.2354 38.6079C11.9408 37.5871 12.67 36.7179 13.5479 36.4233C24.6167 33.9442 34.2358 34.9679 41.8104 39.6317C42.8312 40.0662 42.9771 41.23 42.5425 42.105ZM46.0425 34.0929C45.3104 35.1108 44.0008 35.5483 42.9771 34.8192C35.1108 30.0183 23.1671 28.5542 13.9883 31.4708C12.8275 31.7654 11.5092 31.1792 11.2204 30.0183C10.9258 28.8458 11.5121 27.5333 12.6758 27.2417C23.31 24.0392 36.4262 25.6433 45.4562 31.1821C46.3312 31.6167 46.7687 33.0721 46.0425 34.0929ZM46.3312 25.9292C37.0067 20.3963 21.4171 19.8129 12.5271 22.5867C11.851 22.7815 11.1259 22.7083 10.5023 22.3824C9.87879 22.0565 9.40477 21.5029 9.17875 20.8367C8.98048 20.1598 9.05158 19.4325 9.37719 18.8068C9.7028 18.1811 10.2577 17.7056 10.9258 17.4796C21.2712 14.42 38.3192 15.0004 49.1021 21.42C50.4117 22.1462 50.8492 23.8963 50.12 25.2058C49.3908 26.2267 47.6437 26.6583 46.3312 25.9292Z" fill="white"/>
</svg>
