<svg id="Component_2_1" data-name="Component 2 – 1" xmlns="http://www.w3.org/2000/svg" width="500" height="475.374" viewBox="0 0 500 475.374">
  <defs>
    <style>
      .cls-1 {
        fill: rgba(202,255,255,0);
      }

      .cls-2 {
        fill: #f9f9f9;
      }

      .cls-3, .cls-4 {
        stroke: none;
      }

      .cls-4 {
        fill: #707070;
      }
    </style>
  </defs>
  <g id="Product_Details" data-name="Product Details" class="cls-1" transform="translate(164.948 60.804)">
    <path class="cls-3" d="M 167.5257568359375 410.658935546875 L 3.907204389572144 273.7774047851563 L 167.5257568359375 5.757544040679932 L 331.1443786621094 273.7774047851563 L 167.5257568359375 410.658935546875 Z"/>
    <path class="cls-4" d="M 167.5257568359375 11.51504516601563 L 7.814300537109375 273.1347045898438 L 167.5257568359375 406.74755859375 L 327.2372131347656 273.1347045898438 L 167.5257568359375 11.51504516601563 M 167.5257568359375 -3.0517578125e-05 L 335.051513671875 274.4201049804688 L 167.5257568359375 414.5703430175781 L 0 274.4201049804688 L 167.5257568359375 -3.0517578125e-05 Z"/>
  </g>
  <g id="Web_Main" data-name="Web Main" class="cls-2">
    <path class="cls-3" d="M 167.5257568359375 410.658935546875 L 3.907204389572144 273.7774047851563 L 167.5257568359375 5.757544040679932 L 331.1443786621094 273.7774047851563 L 167.5257568359375 410.658935546875 Z"/>
    <path class="cls-4" d="M 167.5257568359375 11.51504516601563 L 7.814300537109375 273.1347045898438 L 167.5257568359375 406.74755859375 L 327.2372131347656 273.1347045898438 L 167.5257568359375 11.51504516601563 M 167.5257568359375 -3.0517578125e-05 L 335.051513671875 274.4201049804688 L 167.5257568359375 414.5703430175781 L 0 274.4201049804688 L 167.5257568359375 -3.0517578125e-05 Z"/>
  </g>
</svg>
