<svg width="70" height="70" viewBox="0 0 70 70" fill="none" xmlns="http://www.w3.org/2000/svg">
<path d="M35.0039 3.00807e-06C15.6642 -0.00803004 0 16.0741 0 35.9238C0 51.6204 9.7989 64.9633 23.4454 69.8634C25.2832 70.3374 25.0017 68.9959 25.0017 68.0801V61.8545C14.3895 63.1317 13.9593 55.9181 13.2477 54.7131C11.8087 52.1907 8.40688 51.5481 9.42353 50.3431C11.84 49.0659 14.3034 50.6644 17.1579 54.9943C19.2224 58.1352 23.2499 57.605 25.291 57.0829C25.7368 55.1951 26.6909 53.5081 28.0047 52.1988C17.0093 50.1744 12.4265 43.2821 12.4265 35.0884C12.4265 31.112 13.7013 27.457 16.2038 24.5088C14.6084 19.6488 16.3524 15.4877 16.587 14.8692C21.1306 14.4515 25.8541 18.2109 26.2216 18.5082C28.8024 17.7932 31.7506 17.4157 35.0508 17.4157C38.3667 17.4157 41.3228 17.8093 43.9269 18.5322C44.8106 17.8414 49.19 14.6121 53.413 15.0057C53.6398 15.6243 55.3447 19.689 53.8431 24.4847C56.3769 27.4409 57.6673 31.1281 57.6673 35.1125C57.6673 43.3222 53.0533 50.2226 42.0266 52.2148C42.9711 53.1689 43.721 54.3067 44.2326 55.5619C44.7441 56.817 45.0071 58.1642 45.0061 59.5249V68.5621C45.0687 69.2851 45.0061 70 46.1792 70C60.029 65.2043 70 51.765 70 35.9318C70 16.0741 54.328 3.00807e-06 35.0039 3.00807e-06Z" fill="white"/>
</svg>
